<?xml version="1.0" encoding="utf-8"?>
<!-- Generator: Adobe Illustrator 16.0.0, SVG Export Plug-In . SVG Version: 6.00 Build 0)  -->
<!DOCTYPE svg PUBLIC "-//W3C//DTD SVG 1.1//EN" "http://www.w3.org/Graphics/SVG/1.1/DTD/svg11.dtd">
<svg version="1.1"
	 id="svg8625" sodipodi:docname="challenge-background.svg" inkscape:version="0.48.4 r9939" xmlns:dc="http://purl.org/dc/elements/1.1/" xmlns:cc="http://creativecommons.org/ns#" xmlns:rdf="http://www.w3.org/1999/02/22-rdf-syntax-ns#" xmlns:svg="http://www.w3.org/2000/svg" xmlns:sodipodi="http://sodipodi.sourceforge.net/DTD/sodipodi-0.dtd" xmlns:inkscape="http://www.inkscape.org/namespaces/inkscape"
	 xmlns="http://www.w3.org/2000/svg" xmlns:xlink="http://www.w3.org/1999/xlink" x="0px" y="0px" width="1052.363px"
	 height="191.696px" viewBox="0 0 1052.363 191.696" enable-background="new 0 0 1052.363 191.696" xml:space="preserve">
<image overflow="visible" enable-background="new    " width="150" height="91" id="image9299" xlink:href="2ED83E66C24138CC.png"  transform="matrix(0.0067 0 0 0.011 0 -4.882812e-04)">
</image>
<sodipodi:namedview  id="namedview8627" pagecolor="#ffffff" inkscape:zoom="1.2995539" borderopacity="1" bordercolor="#666666" inkscape:cx="526.18119" showgrid="false" objecttolerance="10" inkscape:cy="402.82989" guidetolerance="10" gridtolerance="10" inkscape:current-layer="g8633" inkscape:window-maximized="0" inkscape:window-y="22" inkscape:window-x="0" inkscape:window-height="1158" inkscape:window-width="1746" inkscape:pageshadow="2" inkscape:pageopacity="0">
	</sodipodi:namedview>
<g id="g8635" transform="translate(609.3582,595.2807)">
	<path id="path8637" fill="#3C87C5" d="M152.339-595.282L-153.1-559.224l541.103,19.98l-44.631-56.038H152.339z"/>
</g>
<g id="g8639" transform="translate(46.4589,529.8336)">
	<path id="path8641" fill="#3C87C5" d="M11.615-448.026l-58.074,6.773v86.021h58.074h274.904h719.385v-116.535l-55.002-2.031
		l-541.109-19.98h0.006l-93.314-3.445l-304.87-11.26V-448.026z"/>
</g>
<g id="g8651" transform="translate(266.382,455.5971)">
	<path id="path8653" fill="#3C87C5" d="M66.596-280.994h719.385v-116.535L96.561-422.986L66.596-280.994z"/>
</g>
<path id="path9313" inkscape:connector-curvature="0" fill="#1D3D62" d="M666.066,174.606l8.646-17.095H541.636h-28.928H379.632
	l8.647,17.095l-8.647,17.09h162.004l0,0h133.076L666.066,174.606z"/>
<path id="path9317" inkscape:connector-curvature="0" fill="#FFFFFF" d="M405.134,171.916c0-0.374-0.132-0.706-0.399-1
	c-0.267-0.292-0.641-0.44-1.12-0.44h-1.98v2.88h1.98c0.479,0,0.854-0.146,1.12-0.44C405.002,172.623,405.134,172.29,405.134,171.916
	 M405.334,181.596l-2.519-5.3h-1.182v5.3h-3.5v-14.24h5.641c0.786,0,1.483,0.13,2.09,0.39c0.606,0.26,1.113,0.604,1.52,1.03
	c0.406,0.427,0.717,0.914,0.931,1.46c0.214,0.547,0.319,1.113,0.319,1.701c0,0.479-0.069,0.918-0.21,1.318
	c-0.139,0.401-0.319,0.754-0.54,1.06c-0.22,0.308-0.467,0.574-0.739,0.801c-0.272,0.225-0.551,0.406-0.83,0.539l3.08,5.94H405.334
	L405.334,181.596z"/>
<path id="path9321" inkscape:connector-curvature="0" fill="#FFFFFF" d="M416.354,172.756l-1.278,3.8h2.479L416.354,172.756z
	 M419.134,181.596l-0.66-2.12h-4.38l-0.7,2.12h-3.66l5.181-14.24h2.699l5.181,14.24H419.134z"/>
<path id="path9325" inkscape:connector-curvature="0" fill="#FFFFFF" d="M431.234,171.937c0-0.379-0.133-0.716-0.4-1.015
	c-0.266-0.297-0.64-0.446-1.12-0.446h-1.979v2.921h1.979c0.48,0,0.854-0.149,1.12-0.446
	C431.102,172.653,431.234,172.315,431.234,171.937 M434.734,171.937c0,0.586-0.106,1.152-0.32,1.699
	c-0.214,0.547-0.523,1.035-0.93,1.46c-0.406,0.427-0.914,0.771-1.521,1.031c-0.606,0.26-1.304,0.389-2.09,0.389h-2.14v5.081h-3.5
	v-14.241h5.64c0.786,0,1.483,0.13,2.09,0.39c0.606,0.26,1.114,0.604,1.521,1.031c0.406,0.426,0.716,0.913,0.93,1.46
	C434.628,170.783,434.734,171.35,434.734,171.937"/>
<path id="path9327" inkscape:connector-curvature="0" fill="#FFFFFF" d="M436.775,167.356h3.5v14.24h-3.5V167.356z"/>
<path id="path9331" inkscape:connector-curvature="0" fill="#FFFFFF" d="M450.254,174.476c0-0.599-0.008-1.086-0.02-1.46
	c-0.013-0.373-0.038-0.67-0.07-0.89c-0.034-0.22-0.074-0.389-0.12-0.51c-0.046-0.12-0.104-0.234-0.17-0.34
	c-0.16-0.24-0.37-0.432-0.63-0.579c-0.26-0.147-0.61-0.221-1.05-0.221h-1.54v8h1.54c0.439,0,0.79-0.073,1.05-0.22
	c0.26-0.146,0.47-0.34,0.63-0.579c0.066-0.095,0.124-0.201,0.17-0.32c0.046-0.122,0.086-0.295,0.12-0.52
	c0.032-0.228,0.058-0.528,0.07-0.901C450.246,175.563,450.254,175.076,450.254,174.476 M453.754,174.476v1.61
	c0,0.514-0.04,1.004-0.12,1.47c-0.08,0.468-0.224,0.92-0.43,1.361c-0.208,0.439-0.518,0.866-0.931,1.279
	c-0.492,0.494-1.069,0.85-1.729,1.071c-0.66,0.219-1.362,0.329-2.11,0.329h-5.279v-14.24h5.279c0.748,0,1.45,0.11,2.11,0.33
	c0.66,0.22,1.237,0.578,1.729,1.07c0.413,0.414,0.723,0.841,0.931,1.28c0.206,0.44,0.35,0.894,0.43,1.36
	c0.08,0.467,0.12,0.958,0.12,1.47V174.476L453.754,174.476z"/>
<path id="path9335" inkscape:connector-curvature="0" fill="#FFFFFF" d="M470.394,181.596v-6.82l-2.02,3.52h-2.239l-2.021-3.52v6.82
	h-3.5v-14.24h3.44l3.198,6.28l3.201-6.28h3.44v14.24H470.394L470.394,181.596z"/>
<path id="path9339" inkscape:connector-curvature="0" fill="#FFFFFF" d="M481.953,172.756l-1.278,3.8h2.479L481.953,172.756z
	 M484.733,181.596l-0.66-2.12h-4.38l-0.7,2.12h-3.66l5.18-14.24h2.7l5.181,14.24H484.733z"/>
<path id="path9343" inkscape:connector-curvature="0" fill="#FFFFFF" d="M499.394,177.236c0,0.72-0.146,1.36-0.44,1.92
	c-0.294,0.56-0.688,1.03-1.189,1.41c-0.5,0.381-1.084,0.667-1.75,0.861c-0.667,0.192-1.374,0.289-2.119,0.289
	c-0.548,0-1.067-0.029-1.56-0.089c-0.495-0.061-0.968-0.16-1.422-0.301c-0.452-0.14-0.88-0.33-1.28-0.57
	c-0.399-0.24-0.779-0.546-1.14-0.92l2.24-2.24c0.374,0.374,0.854,0.634,1.441,0.78c0.585,0.146,1.165,0.22,1.738,0.22
	c1.36,0,2.04-0.426,2.04-1.28c0-0.36-0.093-0.639-0.28-0.839c-0.199-0.201-0.514-0.327-0.939-0.381l-1.72-0.24
	c-1.267-0.186-2.221-0.606-2.86-1.259c-0.653-0.667-0.98-1.621-0.98-2.86c0-0.654,0.12-1.254,0.36-1.801
	c0.24-0.546,0.584-1.02,1.031-1.42c0.445-0.4,0.99-0.712,1.629-0.94c0.64-0.227,1.366-0.34,2.18-0.34c1.027,0,1.931,0.13,2.71,0.39
	c0.78,0.261,1.477,0.698,2.09,1.31l-2.199,2.2c-0.227-0.227-0.468-0.396-0.721-0.51c-0.253-0.112-0.5-0.196-0.739-0.249
	c-0.24-0.054-0.468-0.082-0.679-0.082h-0.562c-0.307,0-0.566,0.04-0.78,0.12s-0.39,0.184-0.53,0.31
	c-0.14,0.127-0.243,0.268-0.31,0.42c-0.066,0.154-0.1,0.31-0.1,0.47c0,0.094,0.02,0.2,0.06,0.321c0.04,0.119,0.113,0.232,0.22,0.338
	c0.094,0.094,0.218,0.181,0.37,0.26c0.154,0.081,0.356,0.134,0.61,0.16l1.72,0.241c1.254,0.172,2.187,0.566,2.8,1.179
	c0.388,0.374,0.661,0.82,0.821,1.34S499.394,176.57,499.394,177.236"/>
<path id="path9347" inkscape:connector-curvature="0" fill="#FFFFFF" d="M508.914,181.596v-5.64h-3.721v5.64h-3.498v-14.24h3.498
	v5.48h3.721v-5.48h3.5v14.24H508.914z"/>
<path id="path9351" inkscape:connector-curvature="0" fill="#FFFFFF" d="M525.424,178.717c-0.286,0.626-0.677,1.164-1.17,1.61
	c-0.494,0.448-1.07,0.79-1.73,1.029c-0.66,0.241-1.356,0.36-2.09,0.36c-0.747,0-1.442-0.119-2.09-0.36
	c-0.647-0.239-1.218-0.581-1.71-1.029c-0.494-0.446-0.88-0.984-1.16-1.61c-0.28-0.627-0.42-1.333-0.42-2.12v-9.24h3.5v9.159
	c0,0.667,0.167,1.181,0.5,1.541c0.334,0.36,0.794,0.539,1.38,0.539c0.588,0,1.054-0.179,1.4-0.539c0.346-0.36,0.52-0.874,0.52-1.541
	v-9.159h3.5v9.24C525.854,177.384,525.71,178.089,525.424,178.717"/>
<path id="path9355" inkscape:connector-curvature="0" fill="#FFFFFF" d="M535.494,171.937c0-0.379-0.133-0.716-0.4-1.015
	c-0.266-0.297-0.641-0.446-1.121-0.446h-1.979v2.921h1.979c0.48,0,0.855-0.149,1.121-0.446
	C535.361,172.653,535.494,172.315,535.494,171.937 M538.994,171.937c0,0.586-0.107,1.152-0.32,1.699
	c-0.215,0.547-0.523,1.035-0.93,1.46c-0.406,0.427-0.914,0.771-1.521,1.031c-0.605,0.26-1.303,0.389-2.09,0.389h-2.139v5.081h-3.5
	v-14.241h5.639c0.787,0,1.484,0.13,2.09,0.39c0.607,0.26,1.115,0.604,1.521,1.031c0.406,0.426,0.715,0.913,0.93,1.46
	C538.886,170.783,538.994,171.35,538.994,171.937"/>
<path id="path9359" inkscape:connector-curvature="0" fill="#FFFFFF" d="M555.123,179.127c-0.326,0.58-0.727,1.063-1.199,1.449
	c-0.475,0.387-1.008,0.674-1.6,0.861c-0.594,0.186-1.23,0.279-1.912,0.279c-0.838,0-1.578-0.137-2.219-0.41
	c-0.639-0.272-1.221-0.669-1.74-1.189c-0.371-0.374-0.66-0.777-0.859-1.211c-0.199-0.431-0.342-0.89-0.43-1.369
	c-0.086-0.48-0.135-0.978-0.141-1.491c-0.008-0.513-0.01-1.037-0.01-1.57c0-0.531,0.002-1.055,0.01-1.57
	c0.006-0.513,0.055-1.009,0.141-1.489c0.088-0.481,0.23-0.938,0.43-1.372c0.199-0.432,0.488-0.836,0.859-1.208
	c0.52-0.52,1.102-0.917,1.74-1.191c0.641-0.272,1.381-0.409,2.219-0.409c0.682,0,1.318,0.092,1.912,0.279
	c0.592,0.188,1.125,0.474,1.6,0.86c0.473,0.388,0.873,0.872,1.199,1.451c0.326,0.579,0.557,1.263,0.691,2.049h-3.561
	c-0.107-0.399-0.293-0.752-0.561-1.059c-0.268-0.308-0.688-0.461-1.26-0.461c-0.32,0-0.596,0.058-0.83,0.17
	c-0.234,0.114-0.418,0.258-0.549,0.432c-0.08,0.106-0.154,0.228-0.221,0.36c-0.068,0.132-0.123,0.326-0.17,0.58
	c-0.047,0.252-0.082,0.583-0.109,0.99s-0.041,0.937-0.041,1.589c0,0.655,0.014,1.185,0.041,1.591s0.062,0.736,0.109,0.99
	c0.047,0.253,0.102,0.446,0.17,0.58c0.066,0.133,0.141,0.254,0.221,0.36c0.131,0.172,0.314,0.316,0.549,0.429
	c0.234,0.113,0.51,0.17,0.83,0.17c0.572,0,0.992-0.153,1.26-0.459c0.268-0.308,0.453-0.66,0.561-1.061h3.561
	C555.679,177.863,555.449,178.545,555.123,179.127"/>
<path id="path9363" inkscape:connector-curvature="0" fill="#FFFFFF" d="M564.873,181.596v-5.64h-3.719v5.64h-3.5v-14.24h3.5v5.48
	h3.719v-5.48h3.5v14.24H564.873z"/>
<path id="path9367" inkscape:connector-curvature="0" fill="#FFFFFF" d="M576.433,172.756l-1.279,3.8h2.479L576.433,172.756z
	 M579.212,181.596l-0.66-2.12h-4.379l-0.701,2.12h-3.658l5.18-14.24h2.699l5.18,14.24H579.212z"/>
<path id="path9371" inkscape:connector-curvature="0" fill="#FFFFFF" d="M584.314,181.596v-14.24h3.5v11.12h5.98v3.12H584.314
	L584.314,181.596z"/>
<path id="path9375" inkscape:connector-curvature="0" fill="#FFFFFF" d="M595.833,181.596v-14.24h3.5v11.12h5.98v3.12H595.833
	L595.833,181.596z"/>
<path id="path9379" inkscape:connector-curvature="0" fill="#FFFFFF" d="M607.353,181.596v-14.24h9.68v3.12h-6.18v2.38h5.279v3.12
	h-5.279v2.5h6.18v3.12H607.353z"/>
<path id="path9383" inkscape:connector-curvature="0" fill="#FFFFFF" d="M627.572,181.596l-4.559-7.16v7.16h-3.5v-14.24h3.059
	l4.561,7.16v-7.16h3.5v14.24H627.572z"/>
<path id="path9387" inkscape:connector-curvature="0" fill="#FFFFFF" d="M643.732,178.197c-0.215,0.733-0.588,1.374-1.121,1.92
	c-0.615,0.626-1.266,1.05-1.953,1.27c-0.689,0.22-1.422,0.329-2.195,0.329c-0.842,0-1.582-0.136-2.225-0.41
	c-0.641-0.271-1.223-0.668-1.742-1.188c-0.373-0.374-0.662-0.778-0.861-1.211c-0.199-0.431-0.346-0.89-0.432-1.369
	c-0.086-0.48-0.133-0.978-0.139-1.491c-0.008-0.513-0.012-1.036-0.012-1.57c0-0.531,0.004-1.055,0.012-1.569
	c0.006-0.514,0.053-1.01,0.139-1.49c0.086-0.481,0.232-0.938,0.432-1.371c0.199-0.433,0.488-0.835,0.861-1.208
	c0.52-0.521,1.096-0.918,1.723-1.19c0.627-0.273,1.377-0.41,2.244-0.41c0.922,0,1.713,0.136,2.375,0.41
	c0.66,0.272,1.215,0.63,1.664,1.07c0.447,0.44,0.793,0.943,1.041,1.51c0.246,0.566,0.41,1.143,0.49,1.73h-3.539
	c-0.148-0.547-0.375-0.95-0.68-1.21c-0.309-0.26-0.762-0.39-1.361-0.39c-0.32,0-0.596,0.059-0.83,0.18
	c-0.232,0.12-0.418,0.266-0.549,0.44c-0.082,0.107-0.154,0.227-0.221,0.36c-0.068,0.132-0.121,0.323-0.16,0.57
	c-0.039,0.246-0.072,0.574-0.1,0.98s-0.041,0.936-0.041,1.589c0,0.655,0.014,1.185,0.041,1.591s0.061,0.736,0.1,0.99
	c0.039,0.252,0.092,0.446,0.16,0.58c0.066,0.132,0.139,0.254,0.221,0.36c0.131,0.174,0.316,0.316,0.549,0.43
	c0.234,0.112,0.51,0.168,0.83,0.168c0.373,0,0.688-0.05,0.939-0.148c0.254-0.1,0.459-0.236,0.619-0.41
	c0.201-0.2,0.342-0.438,0.422-0.71c0.08-0.274,0.119-0.544,0.119-0.811v-0.199h-2.1v-2.92h5.6v1.98
	C644.052,176.523,643.945,177.463,643.732,178.197"/>
<path id="path9391" inkscape:connector-curvature="0" fill="#FFFFFF" d="M646.453,181.596v-14.24h9.68v3.12h-6.18v2.38h5.279v3.12
	h-5.279v2.5h6.18v3.12H646.453z"/>
<path id="path9393" inkscape:connector-curvature="0" fill="#FFFFFF" d="M501.432,96.308h-2.806V74.95h2.806V96.308z"/>
<path id="path9397" inkscape:connector-curvature="0" fill="#FFFFFF" d="M518.687,89.912c-0.151,1.058-0.421,1.998-0.81,2.824
	c-0.392,0.826-0.87,1.516-1.436,2.067c-0.564,0.552-1.216,0.97-1.948,1.255c-0.734,0.284-1.517,0.425-2.347,0.425
	c-0.638,0-1.238-0.086-1.805-0.256c-0.566-0.171-1.109-0.433-1.629-0.784c-0.521-0.351-0.981-0.762-1.384-1.231
	c-0.57-0.683-0.981-1.41-1.232-2.183c-0.251-0.771-0.406-1.609-0.465-2.511c-0.06-0.904-0.089-2.2-0.089-3.89
	c0-1.299,0.015-2.329,0.045-3.09c0.028-0.762,0.096-1.46,0.201-2.095c0.104-0.635,0.275-1.229,0.515-1.78s0.581-1.091,1.025-1.619
	c0.638-0.743,1.362-1.306,2.175-1.691c0.815-0.386,1.695-0.579,2.643-0.579c1.719,0,3.159,0.567,4.321,1.701
	c1.16,1.134,1.899,2.756,2.219,4.869h-2.841c-0.219-1.121-0.646-2.01-1.278-2.668c-0.634-0.658-1.439-0.986-2.421-0.986
	c-0.537,0-1.041,0.112-1.515,0.336c-0.476,0.224-0.877,0.541-1.202,0.95c-0.243,0.312-0.432,0.626-0.565,0.944
	c-0.136,0.316-0.244,0.736-0.326,1.257c-0.087,0.521-0.142,1.107-0.172,1.761c-0.028,0.652-0.044,1.55-0.044,2.69
	c0,1.131,0.016,2.02,0.044,2.669c0.03,0.649,0.085,1.235,0.172,1.761c0.082,0.527,0.19,0.944,0.326,1.25
	c0.134,0.308,0.322,0.631,0.565,0.974c0.325,0.399,0.727,0.714,1.202,0.942c0.474,0.229,0.978,0.344,1.515,0.344
	c0.662,0,1.245-0.151,1.747-0.453c0.503-0.304,0.923-0.731,1.259-1.288c0.335-0.556,0.575-1.195,0.717-1.917H518.687L518.687,89.912
	z"/>
<path id="path9401" inkscape:connector-curvature="0" fill="#FFFFFF" d="M542.144,74.95l-4.795,21.357h-2.418l-3.738-14.971
	l-3.711,14.971h-2.428l-4.782-21.357h2.932l3.196,15.264l3.688-15.264h2.238l3.689,15.264l3.195-15.264H542.144L542.144,74.95z"/>
<path id="path9405" inkscape:connector-curvature="0" fill="#FFFFFF" d="M556.544,96.308h-11.736V74.95h11.736v2.915h-8.93v6.226
	h7.621v2.885h-7.621v6.416h8.93V96.308L556.544,96.308z"/>
<path id="path9409" inkscape:connector-curvature="0" fill="#FFFFFF" d="M509.568,126.628h-12.236v-3.125l8.095-11.461
	c0.75-1.076,1.125-2.169,1.125-3.279c0-0.705-0.121-1.346-0.36-1.924c-0.242-0.576-0.598-1.019-1.069-1.328
	c-0.472-0.308-1.018-0.462-1.645-0.462c-0.885,0-1.622,0.308-2.215,0.925c-0.591,0.615-0.888,1.568-0.888,2.856h-3.015
	c0-1.02,0.15-1.96,0.455-2.824c0.303-0.862,0.728-1.595,1.276-2.2c0.549-0.606,1.192-1.07,1.934-1.396
	c0.74-0.324,1.558-0.486,2.452-0.486c1.203,0,2.265,0.279,3.183,0.84c0.918,0.56,1.632,1.361,2.143,2.403
	c0.51,1.042,0.766,2.251,0.766,3.629c0,1.009-0.149,1.886-0.448,2.63c-0.3,0.747-0.809,1.639-1.529,2.682l-6.594,9.395h8.571
	V126.628z"/>
<path id="path9413" inkscape:connector-curvature="0" fill="#FFFFFF" d="M522.164,119.704v-10.672c0-0.772-0.122-1.461-0.367-2.066
	s-0.605-1.075-1.081-1.413c-0.478-0.335-1.019-0.503-1.624-0.503c-0.616,0-1.157,0.168-1.624,0.503
	c-0.468,0.338-0.819,0.808-1.06,1.413c-0.241,0.605-0.361,1.294-0.361,2.066v10.672c0,1.199,0.271,2.165,0.814,2.899
	s1.287,1.101,2.23,1.101c0.952,0,1.701-0.367,2.251-1.101C521.89,121.869,522.164,120.903,522.164,119.704 M525.181,119.806
	c0,1.422-0.271,2.662-0.808,3.722c-0.54,1.059-1.272,1.874-2.201,2.445c-0.929,0.571-1.955,0.856-3.08,0.856
	s-2.151-0.285-3.074-0.856c-0.922-0.571-1.652-1.39-2.185-2.454c-0.535-1.065-0.803-2.302-0.803-3.713v-10.874
	c0-1.063,0.152-2.031,0.462-2.9c0.309-0.868,0.743-1.613,1.305-2.234c0.564-0.623,1.214-1.09,1.948-1.404
	c0.738-0.313,1.52-0.47,2.347-0.47s1.613,0.159,2.358,0.479c0.744,0.319,1.396,0.785,1.948,1.395
	c0.555,0.61,0.988,1.353,1.306,2.227c0.317,0.874,0.477,1.844,0.477,2.907V119.806L525.181,119.806z"/>
<path id="path9417" inkscape:connector-curvature="0" fill="#FFFFFF" d="M537.476,126.628h-3.018V105.94l-4.111,4.201v-3.881
	l4.111-4.135h3.018V126.628L537.476,126.628z"/>
<path id="path9421" inkscape:connector-curvature="0" fill="#FFFFFF" d="M556.898,118.444c0,1.479-0.123,2.729-0.361,3.748
	c-0.24,1.019-0.713,1.938-1.414,2.756c-1.098,1.277-2.572,1.915-4.43,1.915c-0.953,0-1.816-0.176-2.59-0.528
	c-0.775-0.353-1.406-0.804-1.896-1.354c-0.521-0.604-0.9-1.288-1.141-2.049c-0.24-0.762-0.395-1.642-0.461-2.639h3.014
	c0.117,1.098,0.428,1.94,0.938,2.529c0.512,0.589,1.223,0.882,2.137,0.882c0.906,0,1.631-0.318,2.178-0.958
	c0.414-0.482,0.686-1.074,0.816-1.773c0.129-0.7,0.195-1.542,0.195-2.529c0-1.636-0.232-2.902-0.693-3.799
	c-0.461-0.896-1.256-1.344-2.381-1.344c-0.809,0-1.463,0.204-1.961,0.612c-0.502,0.41-0.842,0.939-1.025,1.589h-2.742v-13.377
	h11.342v3.126h-8.629v6.47c0.779-0.941,1.943-1.411,3.492-1.411c1.615,0,2.877,0.526,3.779,1.579
	c0.723,0.83,1.209,1.783,1.459,2.857C556.773,115.821,556.898,117.055,556.898,118.444"/>
<path id="path9423" inkscape:connector-curvature="0" fill="none" stroke="#FFFFFF" stroke-miterlimit="10" d="M565.531,138.221
	h-76.036V62.185h76.036V138.221L565.531,138.221z"/>
<path id="path9505" inkscape:connector-curvature="0" fill="#56A0D2" d="M58.074,81.81L359.992,46.6l-27.015,128.003H58.074V81.81
	L58.074,81.81z"/>
<path id="path9509" inkscape:connector-curvature="0" fill="#6CB0D1" d="M-7.556,89.463l0.142,85.14h65.487V81.81L-7.556,89.463z"/>
<path id="path9513" inkscape:connector-curvature="0" fill="#74C3E4" d="M58.074,81.81V21.352l304.87,11.26l-2.951,13.987
	L58.074,81.81L58.074,81.81z"/>
<path id="path9517" inkscape:connector-curvature="0" fill="#6CB0D1" d="M456.258,36.057l480.054-56.67l61.049,76.65L456.258,36.057
	L456.258,36.057z"/>
<path id="path9521" inkscape:connector-curvature="0" fill="#2D5E9C" d="M359.992,46.599l96.266-10.542l-93.313-3.445
	L359.992,46.599z"/>
<path id="path9525" inkscape:connector-curvature="0" fill="#2D5E9C" d="M997.361,56.037l72.76,91.356l8.594-88.353L997.361,56.037z
	"/>
</svg>
