<?xml version="1.0" encoding="utf-8"?>
<!-- Generator: Adobe Illustrator 16.0.0, SVG Export Plug-In . SVG Version: 6.00 Build 0)  -->
<!DOCTYPE svg PUBLIC "-//W3C//DTD SVG 1.1//EN" "http://www.w3.org/Graphics/SVG/1.1/DTD/svg11.dtd">
<svg version="1.1"
	 id="svg8625" sodipodi:docname="challenge-background.svg" inkscape:version="0.48.4 r9939" xmlns:dc="http://purl.org/dc/elements/1.1/" xmlns:cc="http://creativecommons.org/ns#" xmlns:rdf="http://www.w3.org/1999/02/22-rdf-syntax-ns#" xmlns:svg="http://www.w3.org/2000/svg" xmlns:sodipodi="http://sodipodi.sourceforge.net/DTD/sodipodi-0.dtd" xmlns:inkscape="http://www.inkscape.org/namespaces/inkscape"
	 xmlns="http://www.w3.org/2000/svg" xmlns:xlink="http://www.w3.org/1999/xlink" x="0px" y="0px" width="1052.363px"
	 height="77.646px" viewBox="0 666.453 1052.363 77.646" enable-background="new 0 666.453 1052.363 77.646" xml:space="preserve">
<sodipodi:namedview  id="namedview8627" pagecolor="#ffffff" inkscape:zoom="1.2995539" borderopacity="1" bordercolor="#666666" inkscape:cx="526.18119" showgrid="false" objecttolerance="10" inkscape:cy="402.82989" guidetolerance="10" gridtolerance="10" inkscape:current-layer="g8633" inkscape:window-maximized="0" inkscape:window-y="22" inkscape:window-x="0" inkscape:window-height="1158" inkscape:window-width="1746" inkscape:pageshadow="2" inkscape:pageopacity="0">
	</sodipodi:namedview>
<g id="g8643" transform="translate(46.459,37.9805)">
	<path id="path8645" fill="#3C87C5" d="M11.615,658.644v24.786l379.27-23.609L11.615,658.644z"/>
</g>
<g id="g8647" transform="translate(349.875,37.0395)">
	<path id="path8649" fill="#3C87C5" d="M87.469,660.761h0.003l-379.273,23.609l-58.074,3.642v19.049H702.488v-47.477H633.91
		l-49.346-30.171L87.469,660.761z"/>
</g>
<path id="path9529" inkscape:connector-curvature="0" fill="#3C87C5" d="M58.074,721.411v43.563h1023.463l1.566-7.625
	l-99.318-60.726H456.25L58.074,721.411L58.074,721.411z"/>
<path id="path9533" inkscape:connector-curvature="0" fill="#74C3E4" d="M58.074,721.411v-24.787l379.27,1.177L58.074,721.411
	L58.074,721.411z"/>
<path id="path9537" inkscape:connector-curvature="0" fill="#56A0D2" d="M-30.52,726.966l88.594-5.555v2.777v40.785H-30.52V726.966z
	"/>
<path id="path9541" inkscape:connector-curvature="0" fill="#56A0D2" d="M437.344,697.801l497.095-31.348l49.346,30.172
	L437.344,697.801z"/>
<path id="path9545" inkscape:connector-curvature="0" fill="#74C3E4" d="M983.785,696.624h111.791l-12.471,60.726L983.785,696.624z"
	/>
</svg>
